# Blender 4.2.1 LTS
# www.blender.org
mtllib seat.mtl
o Cube
v 0.694855 0.116872 -1.712416
v 0.694855 -0.116872 -1.712416
v 0.694855 0.116872 1.712416
v 0.694855 -0.116872 1.712416
v -0.694855 0.116872 -1.712416
v -0.694855 -0.116872 -1.712416
v -0.694855 0.116872 1.712416
v -0.694855 -0.116872 1.712416
v -0.385417 0.116872 -1.712416
v -0.385417 0.116872 1.712416
v -0.694855 1.308342 -1.712416
v -0.694855 1.308342 1.712416
v -0.385417 1.308342 -1.712416
v -0.385417 1.308342 1.712416
v -0.113081 -0.116872 -1.712416
v -0.113081 -0.116872 1.712416
v -0.694855 -0.705759 -1.712416
v -0.694855 -0.705759 1.712416
v -0.113081 -0.705759 -1.712416
v -0.113081 -0.705759 1.712416
vn -0.0000 1.0000 -0.0000
vn -0.0000 -0.0000 1.0000
vn -1.0000 -0.0000 -0.0000
vn -0.0000 -1.0000 -0.0000
vn 1.0000 -0.0000 -0.0000
vn -0.0000 -0.0000 -1.0000
vt 0.625000 0.500000
vt 0.750000 0.500000
vt 0.875000 0.500000
vt 0.875000 0.750000
vt 0.750000 0.750000
vt 0.625000 0.750000
vt 0.375000 0.750000
vt 0.625000 0.875000
vt 0.625000 1.000000
vt 0.375000 1.000000
vt 0.375000 0.875000
vt 0.375000 0.000000
vt 0.625000 0.000000
vt 0.625000 0.250000
vt 0.375000 0.250000
vt 0.125000 0.500000
vt 0.250000 0.500000
vt 0.375000 0.500000
vt 0.250000 0.750000
vt 0.125000 0.750000
vt 0.625000 0.375000
vt 0.375000 0.375000
vt 0.000000 0.000000
s 0
usemtl Material
f 1/1/1 9/2/1 5/3/1 7/4/1 10/5/1 3/6/1
f 4/7/2 3/6/2 10/8/2 7/9/2 8/10/2 16/11/2
f 8/12/3 7/13/3 5/14/3 6/15/3
f 6/16/4 15/17/4 2/18/4 4/7/4 16/19/4 8/20/4
f 2/18/5 1/1/5 3/6/5 4/7/5
f 6/15/6 5/14/6 9/21/6 1/1/6 2/18/6 15/22/6
f 7/9/2 10/8/2 14/8/2 12/9/2
f 14/23/1 13/23/1 11/23/1 12/23/1
f 5/14/3 7/13/3 12/13/3 11/14/3
f 10/23/5 9/23/5 13/23/5 14/23/5
f 9/21/6 5/14/6 11/14/6 13/21/6
f 16/23/3 15/23/3 19/23/3 20/23/3
f 19/23/1 17/23/1 18/23/1 20/23/1
f 15/22/2 6/15/2 17/15/2 19/22/2
f 8/20/6 16/19/6 20/19/6 18/20/6
f 6/16/5 8/20/5 18/20/5 17/16/5
