# Blender 4.2.1 LTS
# www.blender.org
mtllib traincar.mtl
o Cube.001
v 4.660550 -3.123704 -12.743671
v 4.660550 -3.123704 12.925766
v -4.660550 -3.123704 -12.743671
v -4.660550 -3.123704 12.925766
v 3.261961 3.123704 -12.743671
v 4.660550 2.186308 -12.743671
v 3.504823 3.109463 -12.743671
v 3.740307 3.067172 -12.743671
v 3.961256 2.998117 -12.743671
v 4.160957 2.904395 -12.743671
v 4.333343 2.788855 -12.743671
v 4.473175 2.655006 -12.743671
v 4.576205 2.506917 -12.743671
v 4.639302 2.349086 -12.743671
v 4.660550 2.186308 12.925766
v 3.261961 3.123704 12.925766
v 4.639302 2.349086 12.925766
v 4.576205 2.506917 12.925766
v 4.473175 2.655006 12.925766
v 4.333343 2.788855 12.925766
v 4.160957 2.904395 12.925766
v 3.961256 2.998117 12.925766
v 3.740307 3.067172 12.925766
v 3.504823 3.109463 12.925766
v -4.660550 2.180473 -12.743671
v -3.253253 3.123704 -12.743671
v -4.639170 2.344263 -12.743671
v -4.575680 2.503077 -12.743671
v -4.472008 2.652088 -12.743671
v -4.331306 2.786770 -12.743671
v -4.157847 2.903030 -12.743671
v -3.956902 2.997335 -12.743671
v -3.734578 3.066821 -12.743671
v -3.497628 3.109374 -12.743671
v -3.253253 3.123704 12.925766
v -4.660550 2.180473 12.925766
v -3.497628 3.109374 12.925766
v -3.734577 3.066821 12.925766
v -3.956902 2.997335 12.925766
v -4.157846 2.903030 12.925766
v -4.331306 2.786770 12.925766
v -4.472008 2.652088 12.925766
v -4.575679 2.503077 12.925766
v -4.639170 2.344263 12.925766
v -4.660550 -3.123704 12.925766
v 4.660550 -3.123704 12.925766
v 3.261961 3.123704 12.925766
v 3.504823 3.109463 12.925766
v 3.740307 3.067172 12.925766
v 3.961256 2.998117 12.925766
v 4.160957 2.904395 12.925766
v 4.333343 2.788855 12.925766
v 4.473175 2.655006 12.925766
v 4.576205 2.506917 12.925766
v 4.639302 2.349086 12.925766
v 4.660550 2.186308 12.925766
v -3.497628 3.109374 12.925766
v -3.253253 3.123704 12.925766
v -3.734577 3.066821 12.925766
v -3.956902 2.997335 12.925766
v -4.157846 2.903030 12.925766
v -4.331306 2.786770 12.925766
v -4.472008 2.652088 12.925766
v -4.575679 2.503077 12.925766
v -4.639170 2.344263 12.925766
v -4.660550 2.180473 12.925766
v -4.660550 -3.123704 12.925766
v 4.660550 -3.123704 12.925766
v 3.261961 3.123704 12.925766
v 3.504823 3.109463 12.925766
v 3.740307 3.067172 12.925766
v 3.961256 2.998117 12.925766
v 4.160957 2.904395 12.925766
v 4.333343 2.788855 12.925766
v 4.473175 2.655006 12.925766
v 4.576205 2.506917 12.925766
v 4.639302 2.349086 12.925766
v 4.660550 2.186308 12.925766
v -3.497628 3.109374 12.925766
v -3.253253 3.123704 12.925766
v -3.734577 3.066821 12.925766
v -3.956902 2.997335 12.925766
v -4.157846 2.903030 12.925766
v -4.331306 2.786770 12.925766
v -4.472008 2.652088 12.925766
v -4.575679 2.503077 12.925766
v -4.639170 2.344263 12.925766
v -4.660550 2.180473 12.925766
v -4.660550 -3.123704 12.925766
v 4.660550 -3.123704 12.925766
v 3.261961 3.123704 12.925766
v 3.504823 3.109463 12.925766
v 3.740307 3.067172 12.925766
v 3.961256 2.998117 12.925766
v 4.160957 2.904395 12.925766
v 4.333343 2.788855 12.925766
v 4.473175 2.655006 12.925766
v 4.576205 2.506917 12.925766
v 4.639302 2.349086 12.925766
v 4.660550 2.186308 12.925766
v -3.497628 3.109374 12.925766
v -3.253253 3.123704 12.925766
v -3.734577 3.066821 12.925766
v -3.956902 2.997335 12.925766
v -4.157846 2.903030 12.925766
v -4.331306 2.786770 12.925766
v -4.472008 2.652088 12.925766
v -4.575679 2.503077 12.925766
v -4.639170 2.344263 12.925766
v -4.660550 2.180473 12.925766
v 4.661064 -3.132838 -12.084251
v -4.660036 -3.132838 -12.084251
v 3.262475 3.114569 -12.084251
v 4.661064 2.177174 -12.084251
v 3.505337 3.100328 -12.084251
v 3.740820 3.058038 -12.084251
v 3.961770 2.988982 -12.084251
v 4.161471 2.895261 -12.084251
v 4.333857 2.779720 -12.084251
v 4.473689 2.645872 -12.084251
v 4.576719 2.497782 -12.084251
v 4.639816 2.339951 -12.084251
v -4.660036 2.171338 -12.084251
v -3.252740 3.114569 -12.084251
v -4.638656 2.335129 -12.084251
v -4.575166 2.493942 -12.084251
v -4.471494 2.642954 -12.084251
v -4.330792 2.777636 -12.084251
v -4.157333 2.893895 -12.084251
v -3.956388 2.988200 -12.084251
v -3.734064 3.057686 -12.084251
v -3.497114 3.100240 -12.084251
v 3.712255 -2.576507 -12.104232
v -3.873184 -2.576507 -12.104232
v 2.574094 2.507586 -12.104232
v 3.712255 1.744741 -12.104232
v 2.771734 2.495997 -12.104232
v 2.963368 2.461581 -12.104232
v 3.143175 2.405384 -12.104232
v 3.305691 2.329114 -12.104232
v 3.445977 2.235088 -12.104232
v 3.559771 2.126163 -12.104232
v 3.643616 2.005649 -12.104232
v 3.694964 1.877208 -12.104232
v -3.873184 1.739992 -12.104232
v -2.727937 2.507586 -12.104232
v -3.855786 1.873283 -12.104232
v -3.804118 2.002525 -12.104232
v -3.719751 2.123789 -12.104232
v -3.605248 2.233392 -12.104232
v -3.464088 2.328003 -12.104232
v -3.300561 2.404748 -12.104232
v -3.119635 2.461295 -12.104232
v -2.926807 2.495925 -12.104232
v -4.660550 -3.123704 0.091048
v 4.660550 -3.123704 0.091048
v 3.261961 3.123704 0.091048
v 3.504823 3.109463 0.091048
v 3.740307 3.067172 0.091048
v 3.961256 2.998117 0.091048
v 4.160957 2.904395 0.091048
v 4.333343 2.788855 0.091048
v 4.473175 2.655006 0.091048
v 4.576205 2.506917 0.091048
v 4.639302 2.349086 0.091048
v 4.660550 2.186308 0.091048
v -3.253253 3.123704 0.091048
v -3.497628 3.109374 0.091048
v -3.734577 3.066821 0.091048
v -3.956902 2.997335 0.091048
v -4.157846 2.903030 0.091048
v -4.331306 2.786770 0.091048
v -4.472008 2.652088 0.091048
v -4.575680 2.503077 0.091048
v -4.639170 2.344263 0.091048
v -4.660550 2.180473 0.091048
vn -0.0000 1.0000 -0.0000
vn -0.0000 -1.0000 -0.0000
vn -0.0000 -0.0000 1.0000
vn 1.0000 -0.0000 -0.0000
vn 0.0585 0.9983 -0.0000
vn 0.1768 0.9843 -0.0000
vn 0.2983 0.9545 -0.0000
vn 0.4248 0.9053 -0.0000
vn 0.5568 0.8307 -0.0000
vn 0.6915 0.7224 -0.0000
vn 0.8209 0.5711 -0.0000
vn 0.9285 0.3712 -0.0000
vn 0.9916 0.1294 -0.0000
vn -1.0000 -0.0000 -0.0000
vn -0.0585 0.9983 -0.0000
vn -0.1768 0.9843 -0.0000
vn -0.2983 0.9545 -0.0000
vn -0.4248 0.9053 -0.0000
vn -0.5568 0.8307 -0.0000
vn -0.6915 0.7224 -0.0000
vn -0.8209 0.5711 -0.0000
vn -0.9285 0.3712 -0.0000
vn -0.9916 0.1294 -0.0000
vn -1.0000 -0.0000 0.0008
vn -0.5567 -0.8306 -0.0111
vn 0.8208 -0.5711 -0.0086
vn 0.1767 -0.9842 -0.0138
vn -0.0000 0.9999 0.0139
vn -0.8209 -0.5711 -0.0073
vn 0.9916 -0.1294 -0.0026
vn -0.1767 -0.9842 -0.0135
vn 0.4248 -0.9052 -0.0129
vn -0.9916 -0.1294 -0.0010
vn -0.4248 -0.9052 -0.0122
vn 0.6914 -0.7224 -0.0105
vn 0.0585 -0.9982 -0.0139
vn -0.6915 -0.7224 -0.0095
vn 0.9285 -0.3712 -0.0059
vn 0.2983 -0.9544 -0.0135
vn -0.0585 -0.9982 -0.0138
vn -0.9285 -0.3712 -0.0044
vn -0.0000 -0.9999 -0.0139
vn -0.2983 -0.9544 -0.0130
vn 0.5567 -0.8306 -0.0119
vn 1.0000 -0.0000 -0.0008
vn -0.0051 0.0283 -0.9996
vn -0.0179 0.0125 -0.9998
vn 0.0117 0.0175 -0.9998
vn 0.0211 -0.0000 -0.9998
vn -0.0254 -0.0000 -0.9997
vn -0.0130 0.0194 -0.9997
vn 0.0074 0.0238 -0.9997
vn -0.0000 0.0329 -0.9995
vn 0.0177 0.0071 -0.9998
vn 0.0018 0.0309 -0.9995
vn -0.0079 0.0253 -0.9996
vn -0.0206 0.0083 -0.9998
vn 0.0137 0.0143 -0.9998
vn -0.0018 0.0313 -0.9995
vn -0.0154 0.0161 -0.9998
vn 0.0097 0.0206 -0.9997
vn 0.0199 0.0026 -0.9998
vn -0.0105 0.0224 -0.9997
vn 0.0049 0.0271 -0.9996
vn -0.0237 0.0031 -0.9997
vn 0.0157 0.0109 -0.9998
vn -0.0000 -0.0359 -0.9994
vn -0.0000 0.0001 1.0000
vt 0.662511 0.625000
vt 0.837255 0.625000
vt 0.837255 0.750000
vt 0.662511 0.750000
vt 0.125000 0.625000
vt 0.375000 0.625000
vt 0.375000 0.750000
vt 0.125000 0.750000
vt 0.587489 0.750000
vt 0.594002 0.750570
vt 0.600318 0.752262
vt 0.606244 0.755026
vt 0.611600 0.758776
vt 0.616224 0.763400
vt 0.619974 0.768756
vt 0.622738 0.774682
vt 0.624430 0.780998
vt 0.625000 0.787511
vt 0.625000 0.962255
vt 0.624427 0.968809
vt 0.622724 0.975165
vt 0.619943 0.981128
vt 0.616169 0.986517
vt 0.611517 0.991169
vt 0.606128 0.994943
vt 0.600165 0.997724
vt 0.593809 0.999427
vt 0.587255 1.000000
vt 0.375000 1.000000
vt 0.587489 0.625000
vt 0.655998 0.750000
vt 0.655998 0.625000
vt 0.649682 0.750000
vt 0.649682 0.625000
vt 0.643756 0.750000
vt 0.643756 0.625000
vt 0.638400 0.750000
vt 0.638400 0.625000
vt 0.611600 0.750000
vt 0.611600 0.625000
vt 0.606244 0.750000
vt 0.606244 0.625000
vt 0.600318 0.750000
vt 0.600318 0.625000
vt 0.594002 0.750000
vt 0.594002 0.625000
vt 0.375000 0.125000
vt 0.587255 0.125000
vt 0.587255 0.250000
vt 0.375000 0.250000
vt 0.837255 0.500000
vt 0.843809 0.500000
vt 0.843809 0.625000
vt 0.850165 0.500000
vt 0.850165 0.625000
vt 0.856128 0.500000
vt 0.856128 0.625000
vt 0.875000 0.500000
vt 0.875000 0.625000
vt 0.625000 0.125000
vt 0.625000 0.250000
vt 0.611517 0.250000
vt 0.611517 0.125000
vt 0.606128 0.250000
vt 0.606128 0.125000
vt 0.600165 0.250000
vt 0.600165 0.125000
vt 0.593809 0.250000
vt 0.593809 0.125000
vt 0.587489 0.500000
vt 0.375000 0.500000
vt 0.638400 0.500000
vt 0.611600 0.500000
vt 0.125000 0.500000
vt 0.606244 0.500000
vt 0.600318 0.500000
vt 0.655998 0.500000
vt 0.649682 0.500000
vt 0.594002 0.500000
vt 0.643756 0.500000
vt 0.662511 0.500000
vt 0.000000 0.000000
vt 0.593809 0.000000
vt 0.587255 0.000000
vt 0.600165 0.000000
vt 0.606128 0.000000
vt 0.611517 0.000000
vt 0.625000 0.000000
vt 0.856128 0.750000
vt 0.875000 0.750000
vt 0.850165 0.750000
vt 0.843809 0.750000
vt 0.375000 0.000000
s 0
usemtl Material
f 157/1/1 167/2/1 58/3/1 47/4/1
f 155/5/2 156/6/2 46/7/2 45/8/2
f 2/7/3 15/9/3 17/10/3 18/11/3 19/12/3 20/13/3 21/14/3 22/15/3 23/16/3 24/17/3 16/18/3 35/19/3 37/20/3 38/21/3 39/22/3 40/23/3 41/24/3 42/25/3 43/26/3 44/27/3 36/28/3 4/29/3
f 156/6/4 166/30/4 56/9/4 46/7/4
f 157/1/5 47/4/5 48/31/5 158/32/5
f 158/32/6 48/31/6 49/33/6 159/34/6
f 159/34/7 49/33/7 50/35/7 160/36/7
f 160/36/8 50/35/8 51/37/8 161/38/8
f 161/38/9 51/37/9 52/39/9 162/40/9
f 162/40/10 52/39/10 53/41/10 163/42/10
f 163/42/11 53/41/11 54/43/11 164/44/11
f 164/44/12 54/43/12 55/45/12 165/46/12
f 165/46/13 55/45/13 56/9/13 166/30/13
f 155/47/14 176/48/14 25/49/14 3/50/14
f 167/2/15 26/51/15 34/52/15 168/53/15
f 168/53/16 34/52/16 33/54/16 169/55/16
f 169/55/17 33/54/17 32/56/17 170/57/17
f 170/57/18 32/56/18 31/58/18 171/59/18
f 171/60/19 31/61/19 30/62/19 172/63/19
f 172/63/20 30/62/20 29/64/20 173/65/20
f 173/65/21 29/64/21 28/66/21 174/67/21
f 174/67/22 28/66/22 27/68/22 175/69/22
f 175/69/23 27/68/23 25/49/23 176/48/23
f 6/70/24 1/71/24 111/71/24 114/70/24
f 10/72/25 11/73/25 119/73/25 118/72/25
f 28/66/26 29/64/26 127/64/26 126/66/26
f 33/54/27 34/52/27 132/52/27 131/54/27
f 1/71/28 3/74/28 112/74/28 111/71/28
f 12/75/29 13/76/29 121/76/29 120/75/29
f 25/49/30 27/68/30 125/68/30 123/49/30
f 7/77/31 8/78/31 116/78/31 115/77/31
f 31/58/32 32/56/32 130/56/32 129/58/32
f 14/79/33 6/70/33 114/70/33 122/79/33
f 9/80/34 10/72/34 118/72/34 117/80/34
f 29/64/35 30/62/35 128/62/35 127/64/35
f 34/52/36 26/51/36 124/51/36 132/52/36
f 11/73/37 12/75/37 120/75/37 119/73/37
f 27/68/38 28/66/38 126/66/38 125/68/38
f 32/56/39 33/54/39 131/54/39 130/56/39
f 5/81/40 7/77/40 115/77/40 113/81/40
f 13/76/41 14/79/41 122/79/41 121/76/41
f 26/51/42 5/81/42 113/81/42 124/51/42
f 8/78/43 9/80/43 117/80/43 116/78/43
f 30/62/44 31/61/44 129/61/44 128/62/44
f 3/50/45 25/49/45 123/49/45 112/50/45
f 68/7/1 67/29/1 45/29/1 46/7/1
f 69/18/1 70/17/1 48/17/1 47/18/1
f 70/17/1 71/16/1 49/16/1 48/17/1
f 71/16/1 72/15/1 50/15/1 49/16/1
f 72/15/1 73/14/1 51/14/1 50/15/1
f 73/14/1 74/13/1 52/13/1 51/14/1
f 74/13/1 75/12/1 53/12/1 52/13/1
f 75/12/1 76/11/1 54/11/1 53/12/1
f 76/11/1 77/10/1 55/10/1 54/11/1
f 77/10/1 78/9/1 56/9/1 55/10/1
f 78/82/1 68/82/1 46/82/1 56/82/1
f 79/20/1 80/19/1 58/19/1 57/20/1
f 81/21/1 79/20/1 57/20/1 59/21/1
f 82/22/1 81/21/1 59/21/1 60/22/1
f 83/23/1 82/22/1 60/22/1 61/23/1
f 84/24/1 83/23/1 61/23/1 62/24/1
f 85/25/1 84/24/1 62/24/1 63/25/1
f 86/26/1 85/25/1 63/25/1 64/26/1
f 87/27/1 86/26/1 64/26/1 65/27/1
f 88/28/1 87/27/1 65/27/1 66/28/1
f 67/82/1 88/82/1 66/82/1 45/82/1
f 80/19/1 69/18/1 47/18/1 58/19/1
f 90/7/1 89/29/1 67/29/1 68/7/1
f 91/18/1 92/17/1 70/17/1 69/18/1
f 92/17/1 93/16/1 71/16/1 70/17/1
f 93/16/1 94/15/1 72/15/1 71/16/1
f 94/15/1 95/14/1 73/14/1 72/15/1
f 95/14/1 96/13/1 74/13/1 73/14/1
f 96/13/1 97/12/1 75/12/1 74/13/1
f 97/12/1 98/11/1 76/11/1 75/12/1
f 98/11/1 99/10/1 77/10/1 76/11/1
f 99/10/1 100/9/1 78/9/1 77/10/1
f 100/82/1 90/82/1 68/82/1 78/82/1
f 101/20/1 102/19/1 80/19/1 79/20/1
f 103/21/1 101/20/1 79/20/1 81/21/1
f 104/22/1 103/21/1 81/21/1 82/22/1
f 105/23/1 104/22/1 82/22/1 83/23/1
f 106/24/1 105/23/1 83/23/1 84/24/1
f 107/25/1 106/24/1 84/24/1 85/25/1
f 108/26/1 107/25/1 85/25/1 86/26/1
f 109/27/1 108/26/1 86/26/1 87/27/1
f 110/28/1 109/27/1 87/27/1 88/28/1
f 89/82/1 110/82/1 88/82/1 67/82/1
f 102/19/1 91/18/1 69/18/1 80/19/1
f 2/7/1 4/29/1 89/29/1 90/7/1
f 16/18/1 24/17/1 92/17/1 91/18/1
f 24/17/1 23/16/1 93/16/1 92/17/1
f 23/16/1 22/15/1 94/15/1 93/16/1
f 22/15/1 21/14/1 95/14/1 94/15/1
f 21/14/1 20/13/1 96/13/1 95/14/1
f 20/13/1 19/12/1 97/12/1 96/13/1
f 19/12/1 18/11/1 98/11/1 97/12/1
f 18/11/1 17/10/1 99/10/1 98/11/1
f 17/10/1 15/9/1 100/9/1 99/10/1
f 15/9/1 2/7/1 90/7/1 100/9/1
f 37/20/1 35/19/1 102/19/1 101/20/1
f 38/21/1 37/20/1 101/20/1 103/21/1
f 39/22/1 38/21/1 103/21/1 104/22/1
f 40/23/1 39/22/1 104/22/1 105/23/1
f 41/24/1 40/23/1 105/23/1 106/24/1
f 42/25/1 41/24/1 106/24/1 107/25/1
f 43/26/1 42/25/1 107/25/1 108/26/1
f 44/27/1 43/26/1 108/26/1 109/27/1
f 36/28/1 44/27/1 109/27/1 110/28/1
f 4/29/1 36/28/1 110/28/1 89/29/1
f 35/19/1 16/18/1 91/18/1 102/19/1
f 131/54/46 132/52/46 154/52/46 153/54/46
f 65/83/23 175/69/23 176/48/23 66/84/23
f 126/66/47 127/64/47 149/64/47 148/66/47
f 118/72/48 119/73/48 141/73/48 140/72/48
f 114/70/49 111/71/49 133/71/49 136/70/49
f 112/50/50 123/49/50 145/49/50 134/50/50
f 128/62/51 129/61/51 151/61/51 150/62/51
f 116/78/52 117/80/52 139/80/52 138/78/52
f 124/51/53 113/81/53 135/81/53 146/51/53
f 121/76/54 122/79/54 144/79/54 143/76/54
f 113/81/55 115/77/55 137/77/55 135/81/55
f 130/56/56 131/54/56 153/54/56 152/56/56
f 125/68/57 126/66/57 148/66/57 147/68/57
f 119/73/58 120/75/58 142/75/58 141/73/58
f 132/52/59 124/51/59 146/51/59 154/52/59
f 127/64/60 128/62/60 150/62/60 149/64/60
f 117/80/61 118/72/61 140/72/61 139/80/61
f 122/79/62 114/70/62 136/70/62 144/79/62
f 129/58/63 130/56/63 152/56/63 151/58/63
f 115/77/64 116/78/64 138/78/64 137/77/64
f 123/49/65 125/68/65 147/68/65 145/49/65
f 120/75/66 121/76/66 143/76/66 142/75/66
f 111/71/67 112/74/67 134/74/67 133/71/67
f 64/85/22 174/67/22 175/69/22 65/83/22
f 63/86/21 173/65/21 174/67/21 64/85/21
f 62/87/20 172/63/20 173/65/20 63/86/20
f 61/88/19 171/60/19 172/63/19 62/87/19
f 60/89/18 170/57/18 171/59/18 61/90/18
f 59/91/17 169/55/17 170/57/17 60/89/17
f 57/92/16 168/53/16 169/55/16 59/91/16
f 58/3/15 167/2/15 168/53/15 57/92/15
f 45/93/14 66/84/14 176/48/14 155/47/14
f 14/79/13 165/46/13 166/30/13 6/70/13
f 13/76/12 164/44/12 165/46/12 14/79/12
f 12/75/11 163/42/11 164/44/11 13/76/11
f 11/73/10 162/40/10 163/42/10 12/75/10
f 10/72/9 161/38/9 162/40/9 11/73/9
f 9/80/8 160/36/8 161/38/8 10/72/8
f 8/78/7 159/34/7 160/36/7 9/80/7
f 7/77/6 158/32/6 159/34/6 8/78/6
f 5/81/5 157/1/5 158/32/5 7/77/5
f 1/71/4 6/70/4 166/30/4 156/6/4
f 3/74/2 1/71/2 156/6/2 155/5/2
f 5/81/1 26/51/1 167/2/1 157/1/1
f 25/82/3 3/82/3 1/82/3
f 25/82/3 1/82/3 6/82/3
f 6/82/3 26/82/3 25/82/3
f 14/82/3 12/82/3 11/82/3
f 26/82/3 29/82/3 25/82/3
f 14/82/3 11/82/3 6/82/3
f 32/82/3 26/82/3 34/82/3
f 9/82/68 8/82/68 7/82/68
f 28/82/3 27/82/3 29/82/3
f 11/82/3 5/82/3 6/82/3
f 26/82/3 32/82/3 29/82/3
f 7/82/3 5/82/3 10/82/3
f 11/82/3 10/82/3 5/82/3
f 30/82/3 29/82/3 31/82/3
f 9/82/3 7/82/3 10/82/3
f 14/82/3 13/82/3 12/82/3
f 29/82/3 27/82/3 25/82/3
f 33/82/3 32/82/3 34/82/3
f 26/82/3 6/82/3 5/82/3
f 29/82/3 32/82/3 31/82/3
